<svg id="圖層_1" data-name="圖層 1" xmlns="http://www.w3.org/2000/svg" viewBox="0 0 504 337"><defs><style>.cls-1{fill:#e6e6e6;}.cls-1,.cls-2,.cls-4,.cls-5{stroke:#000;}.cls-1,.cls-2,.cls-3,.cls-4,.cls-5,.cls-6{stroke-miterlimit:10;}.cls-1,.cls-2{stroke-width:1.5px;}.cls-2,.cls-3,.cls-5{fill:#fff;}.cls-3,.cls-6{stroke:#231815;}.cls-4,.cls-6{fill:none;}.cls-4,.cls-5{stroke-width:0.75px;}.cls-7{opacity:0.5;}</style></defs><title>home</title><polygon class="cls-1" points="432.65 305.5 52.85 305.5 52.85 114.72 240.89 27.31 432.65 114.72 432.65 305.5"/><polygon class="cls-2" points="427.88 300.12 57.62 300.12 57.62 117.75 241.48 32.69 427.88 118.17 427.88 300.12"/><rect class="cls-1" x="255.26" y="244.78" width="91.62" height="9.46" rx="1.48" ry="1.48"/><path class="cls-1" d="M261.73,184.49h78.68a3.71,3.71,0,0,1,3.71,3.71v56.58a0,0,0,0,1,0,0H258a0,0,0,0,1,0,0V188.2A3.71,3.71,0,0,1,261.73,184.49Z"/><rect class="cls-3" x="262.28" y="190.82" width="77.58" height="46.52"/><rect class="cls-4" x="264.41" y="192.84" width="73.31" height="42.48"/><circle cx="301.07" cy="241.23" r="1.3"/><line class="cls-4" x1="329.61" y1="197.42" x2="279.24" y2="227.27"/><line class="cls-4" x1="328.32" y1="206.9" x2="291.91" y2="228.48"/><path class="cls-4" d="M346.88,248.56H303a1.9,1.9,0,0,1-3.8,0H255.26"/><rect class="cls-1" x="251.92" y="124.66" width="30.59" height="45.11" rx="2.51" ry="2.51"/><rect class="cls-5" x="254.88" y="127.79" width="24.66" height="35.06"/><rect class="cls-4" x="256.56" y="129.73" width="21.31" height="31.17"/><rect x="264.96" y="165.08" width="4.51" height="2.2"/><line class="cls-4" x1="273.65" y1="135.27" x2="259.39" y2="153.86"/><line class="cls-4" x1="274.58" y1="138.98" x2="264.28" y2="152.42"/><rect class="cls-1" x="142.27" y="135.27" width="96.96" height="79.6" rx="4.52" ry="4.52"/><rect class="cls-3" x="146.84" y="143.5" width="87.82" height="62.45"/><rect class="cls-1" x="171.98" y="223.63" width="37.54" height="4.19" rx="0.63" ry="0.63"/><rect class="cls-6" x="149.22" y="146.22" width="83.06" height="57"/><polygon class="cls-1" points="199.37 214.87 190.75 214.87 182.13 214.87 177.64 223.63 190.75 223.63 203.86 223.63 199.37 214.87"/><line class="cls-4" x1="215.5" y1="159.08" x2="165.13" y2="188.93"/><line class="cls-4" x1="214.21" y1="168.56" x2="177.8" y2="190.14"/><circle cx="190.32" cy="210.24" r="1.3"/><g class="cls-7"><path d="M222.82,110.64a1.25,1.25,0,0,1-1.82,1.72,1.25,1.25,0,1,1,1.82-1.72Z"/><path d="M227.59,106.59a1.25,1.25,0,0,1-1.95,1.57,1.25,1.25,0,0,1,1.95-1.57Z"/><path d="M232.66,102.93a1.25,1.25,0,1,1-1.74-.32A1.24,1.24,0,0,1,232.66,102.93Z"/><path d="M238,99.66a1.25,1.25,0,0,1-2.16,1.26A1.25,1.25,0,0,1,238,99.66Z"/><path d="M243.56,96.82a1.25,1.25,0,0,1-2.25,1.09,1.25,1.25,0,0,1,2.25-1.09Z"/><path d="M249.33,94.41a1.25,1.25,0,1,1-1.62-.71A1.24,1.24,0,0,1,249.33,94.41Z"/><path d="M255.27,92.44a1.24,1.24,0,0,1-.84,1.54,1.27,1.27,0,0,1-1.56-.82,1.21,1.21,0,0,1,.84-1.54A1.24,1.24,0,0,1,255.27,92.44Z"/><path d="M261.33,90.91a1.27,1.27,0,0,1-.95,1.48,1.23,1.23,0,0,1-1.49-.91,1.25,1.25,0,0,1,.94-1.5A1.22,1.22,0,0,1,261.33,90.91Z"/><path d="M267.5,89.86a1.25,1.25,0,0,1-1.06,1.39,1.27,1.27,0,0,1-1.42-1,1.21,1.21,0,0,1,1.06-1.39A1.24,1.24,0,0,1,267.5,89.86Z"/><path d="M273.72,89.27a1.26,1.26,0,0,1-1.16,1.31,1.23,1.23,0,0,1-1.33-1.12,1.25,1.25,0,0,1,1.16-1.34A1.22,1.22,0,0,1,273.72,89.27Z"/><path d="M280,89.17a1.25,1.25,0,0,1-1.26,1.22,1.27,1.27,0,0,1-1.24-1.25,1.22,1.22,0,0,1,1.26-1.22A1.23,1.23,0,0,1,280,89.17Z"/><path d="M286.22,89.55a1.25,1.25,0,0,1-2.49-.21,1.25,1.25,0,1,1,2.49.21Z"/><path d="M292.41,90.39a1.25,1.25,0,0,1-2.47-.39,1.25,1.25,0,0,1,2.47.39Z"/><path d="M298.52,91.73a1.23,1.23,0,0,1-1.5.88,1.25,1.25,0,0,1-.93-1.48,1.23,1.23,0,0,1,1.51-.92A1.26,1.26,0,0,1,298.52,91.73Z"/><path d="M304.52,93.5a1.27,1.27,0,0,1-1.57.8,1.23,1.23,0,1,1,.76-2.35A1.21,1.21,0,0,1,304.52,93.5Z"/><path d="M310.35,95.75a1.24,1.24,0,0,1-1.62.66,1.28,1.28,0,0,1-.69-1.62,1.21,1.21,0,0,1,1.62-.66A1.24,1.24,0,0,1,310.35,95.75Z"/><path d="M316,98.42a1.26,1.26,0,0,1-1.67.53,1.23,1.23,0,0,1-.58-1.64,1.25,1.25,0,0,1,1.68-.56A1.23,1.23,0,0,1,316,98.42Z"/><path d="M321.44,101.51a1.25,1.25,0,0,1-2.14-1.29,1.25,1.25,0,0,1,2.14,1.29Z"/><path d="M326.63,105a1.25,1.25,0,0,1-2-1.45,1.25,1.25,0,1,1,2,1.45Z"/><path d="M331.54,108.88a1.27,1.27,0,0,1-1.76.16,1.23,1.23,0,1,1,1.58-1.9A1.22,1.22,0,0,1,331.54,108.88Z"/><path d="M336.12,113.14a1.24,1.24,0,0,1-1.75,0,1.27,1.27,0,0,1,0-1.76,1.21,1.21,0,0,1,1.76,0A1.25,1.25,0,0,1,336.12,113.14Z"/><path d="M340.39,117.71a1.27,1.27,0,0,1-1.75-.12,1.23,1.23,0,1,1,1.85-1.64A1.21,1.21,0,0,1,340.39,117.71Z"/><path d="M344.27,122.61a1.25,1.25,0,0,1-1.73-.26,1.27,1.27,0,0,1,.24-1.75,1.22,1.22,0,0,1,1.73.26A1.24,1.24,0,0,1,344.27,122.61Z"/><path d="M347.78,127.79a1.25,1.25,0,0,1-1.7-.39,1.23,1.23,0,0,1,.34-1.71,1.26,1.26,0,0,1,1.74.37A1.24,1.24,0,0,1,347.78,127.79Z"/><path d="M350.87,133.23a1.25,1.25,0,0,1-1.18-2.21,1.25,1.25,0,0,1,1.18,2.21Z"/><path d="M353.54,138.88a1.25,1.25,0,0,1-1-2.28,1.25,1.25,0,1,1,1,2.28Z"/><path d="M355.78,144.72a1.25,1.25,0,0,1-.84-2.36,1.25,1.25,0,0,1,.84,2.36Z"/><path d="M357.57,150.71a1.25,1.25,0,0,1-.66-2.41,1.25,1.25,0,1,1,.66,2.41Z"/><path d="M358.93,156.82a1.27,1.27,0,0,1-1.46-1,1.23,1.23,0,1,1,2.42-.47A1.22,1.22,0,0,1,358.93,156.82Z"/><path d="M359.77,163a1.25,1.25,0,0,1-1.36-1.1,1.27,1.27,0,0,1,1.09-1.39,1.22,1.22,0,0,1,1.36,1.1A1.24,1.24,0,0,1,359.77,163Z"/><path d="M360.16,169.25a1.25,1.25,0,0,1-.1-2.5,1.25,1.25,0,1,1,.1,2.5Z"/><path d="M360.08,175.51a1.27,1.27,0,0,1-1.19-1.3,1.23,1.23,0,1,1,2.47.09A1.21,1.21,0,0,1,360.08,175.51Z"/><path d="M359.5,181.73a1.25,1.25,0,0,1,.3-2.48,1.25,1.25,0,0,1-.3,2.48Z"/><path d="M358.44,187.9a1.23,1.23,0,0,1-1-1.46,1.26,1.26,0,0,1,1.44-1,1.23,1.23,0,0,1,1,1.47A1.25,1.25,0,0,1,358.44,187.9Z"/><path d="M356.94,194a1.25,1.25,0,0,1-.85-1.53,1.23,1.23,0,0,1,1.5-.89,1.25,1.25,0,0,1,.88,1.54A1.23,1.23,0,0,1,356.94,194Z"/><path d="M355,199.91a1.27,1.27,0,0,1-.75-1.6,1.25,1.25,0,0,1,1.58-.76,1.23,1.23,0,0,1,.75,1.6A1.22,1.22,0,0,1,355,199.91Z"/></g><g class="cls-7"><path d="M229,269.21a1.24,1.24,0,0,1,1.81-1.68,1.24,1.24,0,1,1-1.81,1.68Z"/><path d="M224.17,273.12a1.24,1.24,0,1,1,1.74.23A1.24,1.24,0,0,1,224.17,273.12Z"/><path d="M219.05,276.59a1.24,1.24,0,1,1,1.72.39A1.23,1.23,0,0,1,219.05,276.59Z"/><path d="M213.65,279.59a1.24,1.24,0,0,1,2.2-1.14,1.24,1.24,0,1,1-2.2,1.14Z"/><path d="M208,282.11a1.24,1.24,0,0,1,2.29-.94,1.24,1.24,0,1,1-2.29.94Z"/><path d="M202.14,284.1a1.23,1.23,0,0,1,.82-1.53,1.27,1.27,0,0,1,1.55.8,1.21,1.21,0,0,1-.81,1.55A1.24,1.24,0,0,1,202.14,284.1Z"/><path d="M196.15,285.59a1.24,1.24,0,0,1,.95-1.45,1.22,1.22,0,0,1,1.47.91,1.25,1.25,0,0,1-.94,1.5A1.24,1.24,0,0,1,196.15,285.59Z"/><path d="M190,286.57a1.27,1.27,0,0,1,1.07-1.39,1.23,1.23,0,1,1,.32,2.45A1.21,1.21,0,0,1,190,286.57Z"/><path d="M183.87,287a1.24,1.24,0,0,1,2.47-.09,1.24,1.24,0,0,1-2.47.09Z"/><path d="M177.69,286.83a1.24,1.24,0,0,1,1.3-1.16,1.27,1.27,0,0,1,1.18,1.29,1.21,1.21,0,0,1-1.3,1.18A1.24,1.24,0,0,1,177.69,286.83Z"/><path d="M171.54,286.14a1.24,1.24,0,0,1,2.45.34,1.24,1.24,0,1,1-2.45-.34Z"/><path d="M165.48,284.91A1.24,1.24,0,0,1,167,284a1.23,1.23,0,0,1,.93,1.46,1.25,1.25,0,0,1-1.49.95A1.23,1.23,0,0,1,165.48,284.91Z"/><path d="M159.55,283.16a1.27,1.27,0,0,1,1.56-.79,1.23,1.23,0,1,1-.76,2.35A1.21,1.21,0,0,1,159.55,283.16Z"/><path d="M153.8,280.89a1.24,1.24,0,0,1,2.28,1,1.24,1.24,0,0,1-2.28-1Z"/><path d="M148.27,278.12a1.24,1.24,0,0,1,2.18,1.17,1.24,1.24,0,0,1-2.18-1.17Z"/><path d="M143,274.87a1.24,1.24,0,0,1,1.7-.35,1.27,1.27,0,0,1,.36,1.71,1.21,1.21,0,0,1-1.71.36A1.24,1.24,0,0,1,143,274.87Z"/><path d="M138.05,271.18a1.22,1.22,0,0,1,1.72-.19,1.23,1.23,0,1,1-1.72.19Z"/><path d="M133.44,267.06a1.24,1.24,0,0,1,1.8,1.69,1.24,1.24,0,1,1-1.8-1.69Z"/><path d="M129.2,262.56a1.27,1.27,0,0,1,1.74.11,1.23,1.23,0,1,1-1.84,1.64A1.21,1.21,0,0,1,129.2,262.56Z"/><path d="M125.38,257.7a1.24,1.24,0,0,1,1.48,2,1.24,1.24,0,0,1-1.48-2Z"/><path d="M122,252.5a1.24,1.24,0,0,1,1.69.42,1.27,1.27,0,0,1-.41,1.7,1.21,1.21,0,0,1-1.69-.41A1.23,1.23,0,0,1,122,252.5Z"/><path d="M119.13,247a1.23,1.23,0,0,1,1.63.57,1.25,1.25,0,0,1-.54,1.65,1.23,1.23,0,0,1-1.67-.55A1.25,1.25,0,0,1,119.13,247Z"/><path d="M116.73,241.34a1.25,1.25,0,0,1,1.59.71,1.23,1.23,0,0,1-.68,1.59,1.24,1.24,0,0,1-1.62-.69A1.22,1.22,0,0,1,116.73,241.34Z"/><path d="M114.82,235.46a1.26,1.26,0,0,1,1.54.84,1.24,1.24,0,0,1-.83,1.53A1.23,1.23,0,0,1,114,237,1.21,1.21,0,0,1,114.82,235.46Z"/><path d="M113.45,229.43a1.24,1.24,0,0,1,.49,2.43,1.24,1.24,0,0,1-.49-2.43Z"/><path d="M112.61,223.3a1.24,1.24,0,0,1,.27,2.46,1.24,1.24,0,0,1-.27-2.46Z"/><path d="M112.33,217.13a1.24,1.24,0,0,1,0,2.47,1.24,1.24,0,0,1,0-2.47Z"/><path d="M112.59,210.95a1.25,1.25,0,0,1,1.14,1.32,1.26,1.26,0,0,1-1.32,1.15,1.21,1.21,0,0,1-1.14-1.32A1.23,1.23,0,0,1,112.59,210.95Z"/><path d="M113.39,204.82a1.25,1.25,0,0,1,1,1.41,1.26,1.26,0,0,1-1.42,1,1.21,1.21,0,0,1-1-1.41A1.23,1.23,0,0,1,113.39,204.82Z"/><path d="M114.74,198.78a1.25,1.25,0,0,1,.89,1.5,1.26,1.26,0,0,1-1.5.9,1.21,1.21,0,0,1-.89-1.5A1.23,1.23,0,0,1,114.74,198.78Z"/><path d="M116.61,192.89a1.25,1.25,0,0,1,.75,1.57,1.26,1.26,0,0,1-1.58.76,1.21,1.21,0,0,1-.76-1.57A1.23,1.23,0,0,1,116.61,192.89Z"/></g></svg>